<?xml version="1.0" encoding="utf-8"?><svg xmlns="http://www.w3.org/2000/svg" xmlns:xlink="http://www.w3.org/1999/xlink"><symbol viewBox="0 0 25 21" id="Design" xmlns="http://www.w3.org/2000/svg"><path d="M23.387 0H1.613A1.615 1.615 0 0 0 0 1.613v13.71a1.615 1.615 0 0 0 1.613 1.613h8.311l-.537 1.612H8.065a.403.403 0 0 0-.404.404v.806H4.032a.403.403 0 1 0 0 .806h17.742a.403.403 0 0 0 0-.806H17.34v-.806a.403.403 0 0 0-.403-.404h-1.323l-.537-1.612h8.311A1.616 1.616 0 0 0 25 15.323V1.613A1.615 1.615 0 0 0 23.387 0Zm-6.855 19.355v.403H8.468v-.403h8.064Zm-6.295-.807.538-1.612h3.45l.538 1.612h-4.526Zm13.957-3.225a.807.807 0 0 1-.807.806H1.613a.807.807 0 0 1-.807-.806v-.807h23.387v.807ZM6.837 10.08l-.152 3.629h-.47l-.15-3.63h.772Zm-.717-.807.27-1.613h.122l.27 1.613H6.12Zm.33-2.42c-.436 0-.806-.553-.806-1.209 0-.414.423-1.015.806-1.439.345.383.807.996.807 1.44 0 .655-.37 1.209-.806 1.209Zm4.389-.806.047.096v.308H9.274v-.308l.048-.096h1.518Zm-1.115-.806.356-.711.356.71h-.712Zm1.162 2.016v6.401c0 .017.001.034.004.05H9.27a.417.417 0 0 0 .003-.05v-6.4h1.613Zm3.63-1.613h1.209v.807h-.403a.403.403 0 1 0 0 .806h.403v.807h-1.21a.403.403 0 0 0 0 .806h1.21v.806h-.403a.403.403 0 1 0 0 .807h.403v.806h-1.21a.403.403 0 0 0 0 .807h1.21v1.613h-2.823V4.032h2.823v.807h-1.21a.403.403 0 0 0 0 .806Zm4.838 4.839v3.175c0 .017.001.034.003.05h-1.62a.405.405 0 0 0 .004-.05v-3.175h1.613Zm-1.613-.807V9.37l.806-1.612.807 1.612v.308h-1.613Zm6.451 4.033h-4.035a.425.425 0 0 0 .003-.05V9.273a.41.41 0 0 0-.042-.18l-1.21-2.42a.404.404 0 0 0-.721 0l-1.21 2.42a.406.406 0 0 0-.043.18v4.385c0 .017.002.034.004.05h-.407V3.63a.403.403 0 0 0-.403-.403H12.5a.403.403 0 0 0-.403.403v10.08h-.407a.405.405 0 0 0 .004-.05V6.05a.406.406 0 0 0-.043-.181l-1.21-2.42a.403.403 0 0 0-.721 0l-1.21 2.42a.407.407 0 0 0-.042.18v7.611a.42.42 0 0 0 .003.05h-.978l.168-4.015v-.04a.407.407 0 0 0-.005-.042V9.61l-.373-2.239c.468-.353.782-.995.782-1.727 0-1.036-1.202-2.184-1.339-2.311a.404.404 0 0 0-.55 0C6.04 3.46 4.84 4.609 4.84 5.645c0 .732.313 1.374.781 1.727l-.373 2.239a.404.404 0 0 0-.005.043v.04l.168 4.016H.806V1.613a.807.807 0 0 1 .807-.807h21.774a.807.807 0 0 1 .806.807V13.71Z"/><path d="M4.436 14.92h-2.42a.403.403 0 0 0 0 .806h2.42a.403.403 0 0 0 0-.807ZM6.048 14.92h-.403a.403.403 0 0 0 0 .806h.403a.403.403 0 0 0 0-.807ZM10.08 7.661a.403.403 0 0 0-.403.403V12.5a.403.403 0 0 0 .807 0V8.064a.403.403 0 0 0-.403-.403ZM18.548 10.887a.404.404 0 0 0-.403.403v1.21a.403.403 0 0 0 .807 0v-1.21a.403.403 0 0 0-.404-.403ZM2.016 2.42h3.226a.403.403 0 0 0 0-.807H2.016a.403.403 0 1 0 0 .806ZM2.016 3.63h.807a.403.403 0 1 0 0-.807h-.807a.403.403 0 1 0 0 .806ZM21.37 12.903h1.614a.404.404 0 0 0 0-.806H21.37a.403.403 0 0 0 0 .806ZM22.58 11.694h.404a.403.403 0 1 0 0-.807h-.403a.404.404 0 0 0 0 .806Z"/></symbol><symbol viewBox="0 0 20 20" id="Facebook" xmlns="http://www.w3.org/2000/svg"><path d="M17.07 0H2.93A2.933 2.933 0 0 0 0 2.93v14.14A2.933 2.933 0 0 0 2.93 20h5.898v-7.07H6.484V9.414h2.344V7.031a3.52 3.52 0 0 1 3.515-3.515h3.555V7.03h-3.555v2.383h3.555l-.586 3.516h-2.969V20h4.727A2.933 2.933 0 0 0 20 17.07V2.93A2.933 2.933 0 0 0 17.07 0Z" /></symbol><symbol viewBox="0 0 20 20" id="Instagram" xmlns="http://www.w3.org/2000/svg"><path d="M0 6.25v7.5A6.25 6.25 0 0 0 6.25 20h7.5A6.25 6.25 0 0 0 20 13.75v-7.5A6.25 6.25 0 0 0 13.75 0h-7.5A6.25 6.25 0 0 0 0 6.25Zm13.75-4.375a4.38 4.38 0 0 1 4.375 4.375v7.5a4.38 4.38 0 0 1-4.375 4.375h-7.5a4.38 4.38 0 0 1-4.375-4.375v-7.5A4.38 4.38 0 0 1 6.25 1.875h7.5Z"/><path d="M5 10a5 5 0 1 0 10 0 5 5 0 0 0-10 0Zm8.125 0A3.13 3.13 0 0 1 10 13.125 3.129 3.129 0 0 1 6.875 10 3.129 3.129 0 0 1 10 6.875 3.13 3.13 0 0 1 13.125 10ZM5.291 4.625a.666.666 0 1 0-1.332 0 .666.666 0 0 0 1.332 0Z"/></symbol><symbol viewBox="0 0 14 25" id="Mobile_dev" xmlns="http://www.w3.org/2000/svg"><path d="M11.719 0H1.563A1.565 1.565 0 0 0 0 1.563v21.093a1.565 1.565 0 0 0 1.563 1.563h10.156a1.565 1.565 0 0 0 1.562-1.563V1.563A1.564 1.564 0 0 0 11.72 0Zm-3.25.781-.22.781H4.993l-.196-.78H8.47ZM12.5 22.656a.783.783 0 0 1-.781.782H1.563a.783.783 0 0 1-.782-.782V1.563A.782.782 0 0 1 1.562.78h2.43l.317 1.267a.39.39 0 0 0 .378.296h3.858a.39.39 0 0 0 .376-.285L9.28.781h2.438a.782.782 0 0 1 .781.781v21.094Z"/><path d="M4.688 21.875H1.953a.39.39 0 0 0 0 .781h2.734a.39.39 0 1 0 0-.781ZM6.25 21.875h-.39a.39.39 0 0 0 0 .781h.39a.39.39 0 1 0 0-.781ZM8.013 9.821a.39.39 0 0 0-.535.134l-2.344 3.906a.39.39 0 1 0 .67.402l2.343-3.906a.391.391 0 0 0-.134-.536ZM9.29 9.912a.39.39 0 0 0-.61.488l1.367 1.71-1.368 1.708a.39.39 0 0 0 .61.489l1.563-1.954a.391.391 0 0 0 0-.488L9.289 9.912ZM3.992 14.307a.391.391 0 0 0 .61-.489L3.235 12.11 4.602 10.4a.39.39 0 1 0-.61-.488l-1.563 1.953a.39.39 0 0 0 0 .489l1.563 1.953Z"/></symbol><symbol viewBox="0 0 25 25" id="UI_designer" xmlns="http://www.w3.org/2000/svg"><path d="m20.265 19.146-.65.433 1.53 2.296H3.855l1.823-2.734h9.924v-.782H5.47a.39.39 0 0 0-.325.174L2.8 22.05a.393.393 0 0 0-.066.217v1.172a.781.781 0 0 0 .782.78h17.968a.781.781 0 0 0 .782-.78v-1.172a.393.393 0 0 0-.066-.217l-1.935-2.903Zm-16.75 4.291v-.78h17.97v.78H3.514ZM20.313.781H4.688a1.175 1.175 0 0 0-1.172 1.172V12.11a1.175 1.175 0 0 0 1.171 1.172h5.47v1.563H8.593a.39.39 0 0 0-.39.39v1.563a.39.39 0 0 0 .39.39h7.812a.391.391 0 0 0 .39-.39v-1.563a.39.39 0 0 0-.39-.39h-1.562V13.28h5.469a1.175 1.175 0 0 0 1.171-1.172V1.953A1.176 1.176 0 0 0 20.312.781Zm-4.297 14.844v.781H8.984v-.781h7.032Zm-5.078-.781V13.28h3.124v1.563h-3.124Zm9.765-2.735a.39.39 0 0 1-.39.391H4.688a.39.39 0 0 1-.391-.39v-1.172h16.406v1.171Zm0-1.953H4.297V1.953a.39.39 0 0 1 .39-.39h15.625a.39.39 0 0 1 .391.39v8.203Z"/><path d="M18.36 11.328h.78v.781h-.78v-.78ZM8.984 9.375h1.563a.39.39 0 0 0 .39-.39v-.391h3.126v.39a.39.39 0 0 0 .39.391h1.563a.39.39 0 0 0 .39-.39V7.421a.39.39 0 0 0-.39-.39h-.391V4.686h.39a.39.39 0 0 0 .391-.39V2.734a.39.39 0 0 0-.39-.39h-1.563a.39.39 0 0 0-.39.39v.391h-3.126v-.39a.39.39 0 0 0-.39-.391H8.984a.39.39 0 0 0-.39.39v1.563a.39.39 0 0 0 .39.39h.391v2.344h-.39a.39.39 0 0 0-.391.39v1.563a.39.39 0 0 0 .39.391Zm6.641-.781h-.781v-.781h.781v.78Zm-.781-5.469h.781v.781h-.781v-.781Zm-5.469 0h.781v.781h-.781v-.781Zm.781 1.563h.39a.39.39 0 0 0 .392-.391v-.39h3.124v.39a.39.39 0 0 0 .391.39h.39v2.344h-.39a.39.39 0 0 0-.39.39v.391h-3.126v-.39a.39.39 0 0 0-.39-.39h-.39V4.686Zm-.781 3.125h.781v.78h-.781v-.78ZM8.984 20.313h5.47v.78h-5.47v-.78ZM23.387 14.39l-1.106-1.105a.386.386 0 0 0-.277-.113.38.38 0 0 0-.274.113l-5.25 5.25a.384.384 0 0 0-.093.152l-.278.829a.395.395 0 0 0 .094.398l-.55.555.55.55.555-.55a.386.386 0 0 0 .398.093l.828-.277a.384.384 0 0 0 .153-.094l5.25-5.25a.39.39 0 0 0 0-.55Zm-5.735 5.184-.511.168-.215-.21.172-.512 3.8-3.801.555.55-3.8 3.805Zm4.352-4.355-.55-.551.55-.555.555.555-.555.55Z"/></symbol><symbol viewBox="0 0 496 512" id="github" xmlns="http://www.w3.org/2000/svg"><!--!Font Awesome Free 6.5.2 by @fontawesome - https://fontawesome.com License - https://fontawesome.com/license/free Copyright 2024 Fonticons, Inc.--><path d="M165.9 397.4c0 2-2.3 3.6-5.2 3.6-3.3.3-5.6-1.3-5.6-3.6 0-2 2.3-3.6 5.2-3.6 3-.3 5.6 1.3 5.6 3.6zm-31.1-4.5c-.7 2 1.3 4.3 4.3 4.9 2.6 1 5.6 0 6.2-2s-1.3-4.3-4.3-5.2c-2.6-.7-5.5.3-6.2 2.3zm44.2-1.7c-2.9.7-4.9 2.6-4.6 4.9.3 2 2.9 3.3 5.9 2.6 2.9-.7 4.9-2.6 4.6-4.6-.3-1.9-3-3.2-5.9-2.9zM244.8 8C106.1 8 0 113.3 0 252c0 110.9 69.8 205.8 169.5 239.2 12.8 2.3 17.3-5.6 17.3-12.1 0-6.2-.3-40.4-.3-61.4 0 0-70 15-84.7-29.8 0 0-11.4-29.1-27.8-36.6 0 0-22.9-15.7 1.6-15.4 0 0 24.9 2 38.6 25.8 21.9 38.6 58.6 27.5 72.9 20.9 2.3-16 8.8-27.1 16-33.7-55.9-6.2-112.3-14.3-112.3-110.5 0-27.5 7.6-41.3 23.6-58.9-2.6-6.5-11.1-33.3 2.6-67.9 20.9-6.5 69 27 69 27 20-5.6 41.5-8.5 62.8-8.5s42.8 2.9 62.8 8.5c0 0 48.1-33.6 69-27 13.7 34.7 5.2 61.4 2.6 67.9 16 17.7 25.8 31.5 25.8 58.9 0 96.5-58.9 104.2-114.8 110.5 9.2 7.9 17 22.9 17 46.4 0 33.7-.3 75.4-.3 83.6 0 6.5 4.6 14.4 17.3 12.1C428.2 457.8 496 362.9 496 252 496 113.3 383.5 8 244.8 8zM97.2 352.9c-1.3 1-1 3.3.7 5.2 1.6 1.6 3.9 2.3 5.2 1 1.3-1 1-3.3-.7-5.2-1.6-1.6-3.9-2.3-5.2-1zm-10.8-8.1c-.7 1.3.3 2.9 2.3 3.9 1.6 1 3.6.7 4.3-.7.7-1.3-.3-2.9-2.3-3.9-2-.6-3.6-.3-4.3.7zm32.4 35.6c-1.6 1.3-1 4.3 1.3 6.2 2.3 2.3 5.2 2.6 6.5 1 1.3-1.3.7-4.3-1.3-6.2-2.2-2.3-5.2-2.6-6.5-1zm-11.4-14.7c-1.6 1-1.6 3.6 0 5.9 1.6 2.3 4.3 3.3 5.6 2.3 1.6-1.3 1.6-3.9 0-6.2-1.4-2.3-4-3.3-5.6-2z"/></symbol></svg>